<svg width="8" height="13" viewBox="0 0 8 13" fill="none" xmlns="http://www.w3.org/2000/svg">
<path d="M5.56743 2.04543H7.32556C7.48731 2.04543 7.61858 1.93088 7.61858 1.78975V0.255678C7.61858 0.114544 7.48731 0 7.32556 0H5.56743C3.79054 0 2.34418 1.26152 2.34418 2.81246V4.60221H0.293022C0.131274 4.60221 0 4.71675 0 4.85789V6.39196C0 6.53309 0.131274 6.64764 0.293022 6.64764H2.34418V12.0169C2.34418 12.158 2.47545 12.2726 2.6372 12.2726H4.39534C4.55708 12.2726 4.68836 12.158 4.68836 12.0169V6.64764H6.73952C6.86551 6.64764 6.97745 6.57707 7.01789 6.47275L7.60393 4.93868C7.63382 4.86096 7.61858 4.77505 7.56349 4.70806C7.50782 4.64158 7.41991 4.60221 7.32556 4.60221H4.68836V2.81246C4.68836 2.38957 5.08277 2.04543 5.56743 2.04543Z" fill="#0A142F"/>
</svg>
