<svg width="13" height="13" viewBox="0 0 13 13" fill="none" xmlns="http://www.w3.org/2000/svg">
<path d="M1.62168 3.00328C2.51731 3.00328 3.24337 2.33098 3.24337 1.50164C3.24337 0.672308 2.51731 0 1.62168 0C0.726052 0 0 0.672308 0 1.50164C0 2.33098 0.726052 3.00328 1.62168 3.00328Z" fill="#0A142F"/>
<path d="M2.97308 4.00586H0.27028C0.121086 4.00586 0 4.11798 0 4.25613V11.7643C0 11.9025 0.121086 12.0146 0.27028 12.0146H2.97308C3.12228 12.0146 3.24337 11.9025 3.24337 11.7643V4.25613C3.24337 4.11798 3.12228 4.00586 2.97308 4.00586Z" fill="#0A142F"/>
<path d="M11.0275 3.58929C9.87233 3.22289 8.42741 3.54474 7.56089 4.12188C7.53116 4.01426 7.42521 3.93417 7.29926 3.93417H4.59645C4.44726 3.93417 4.32617 4.04629 4.32617 4.18444V11.6926C4.32617 11.8308 4.44726 11.9429 4.59645 11.9429H7.29926C7.44845 11.9429 7.56954 11.8308 7.56954 11.6926V6.29675C8.00631 5.94837 8.56904 5.83725 9.02959 6.01845C9.4761 6.19314 9.73178 6.61961 9.73178 7.18773V11.6926C9.73178 11.8308 9.85287 11.9429 10.0021 11.9429H12.7049C12.8541 11.9429 12.9751 11.8308 12.9751 11.6926V6.68368C12.9443 4.62693 11.8994 3.8656 11.0275 3.58929Z" fill="#0A142F"/>
</svg>
