<svg width="41" height="50" viewBox="0 0 41 50" fill="none"
     xmlns="http://www.w3.org/2000/svg">
    <path d="M38.7344 13.2969V36.4219C38.7344 45.6719 36.4219 47.9844 27.1719 47.9844H13.2969C4.04688 47.9844 1.73438 45.6719 1.73438 36.4219V13.2969C1.73438 4.04688 4.04688 1.73438 13.2969 1.73438H27.1719C36.4219 1.73438 38.7344 4.04688 38.7344 13.2969Z"
          stroke="#5E5DEF" stroke-width="3.46875" stroke-linecap="round"
          stroke-linejoin="round"/>
    <path d="M24.8594 9.82812H15.6094" stroke="#5E5DEF" stroke-width="3.46875"
          stroke-linecap="round" stroke-linejoin="round"/>
    <path d="M20.2348 41.2781C22.2144 41.2781 23.8191 39.6733 23.8191 37.6937C23.8191 35.7142 22.2144 34.1094 20.2348 34.1094C18.2552 34.1094 16.6504 35.7142 16.6504 37.6937C16.6504 39.6733 18.2552 41.2781 20.2348 41.2781Z"
          stroke="#5E5DEF" stroke-width="3.46875" stroke-linecap="round"
          stroke-linejoin="round"/>
</svg>
