<svg width="33" height="33" viewBox="0 0 33 33" fill="none"
     xmlns="http://www.w3.org/2000/svg">
    <path d="M33.019 14.773H22.9604L31.6711 9.746L29.9437 6.754L21.2318 11.781L26.26 3.0745L23.2673 1.3475L18.238 10.0518V0H14.7809V10.0529L9.75165 1.3475L6.75782 3.0745L11.786 11.7788L3.07634 6.754L1.34783 9.746L10.0586 14.773H0V18.2281H10.0575L1.34783 23.2551L3.07524 26.2471L11.7871 21.2201L6.75782 29.9266L9.75055 31.6537L14.7809 22.9482V33H18.238V22.7326L23.3597 31.5986L26.1665 29.9794L21.0437 21.1113L29.9415 26.246L31.67 23.254L22.9604 18.227H33.0179V14.773H33.019ZM16.5095 21.197C15.8923 21.1971 15.2812 21.0757 14.7111 20.8396C14.141 20.6036 13.6228 20.2576 13.1865 19.8213C12.7501 19.3852 12.4038 18.8673 12.1676 18.2973C11.9314 17.7273 11.8098 17.1164 11.8097 16.4995C11.8096 15.8825 11.9311 15.2715 12.1672 14.7015C12.4033 14.1315 12.7493 13.6135 13.1857 13.1772C13.622 12.741 14.1399 12.3948 14.7101 12.1586C15.2802 11.9225 15.8912 11.8009 16.5084 11.8008C17.7546 11.8007 18.95 12.2955 19.8314 13.1765C20.7128 14.0575 21.208 15.2524 21.2082 16.4984C21.2083 17.7443 20.7134 18.9394 19.8321 19.8206C18.951 20.7018 17.7557 21.1968 16.5095 21.197Z"
          fill="url(#paint0_linear_289_144)"/>
    <defs>
        <linearGradient id="paint0_linear_289_144" x1="16.5095" y1="0"
                        x2="16.5095" y2="33" gradientUnits="userSpaceOnUse">
            <stop stop-color="#3171DE"/>
            <stop offset="1" stop-color="#704AF2"/>
        </linearGradient>
    </defs>
</svg>
