<svg width="171" height="57" viewBox="0 0 171 57" fill="none"
     xmlns="http://www.w3.org/2000/svg">
    <g clip-path="url(#clip0_1_322)">
        <path d="M165.571 34.2685L170.312 37.429C168.774 39.6954 165.093 43.5838 158.731 43.5838C150.829 43.5838 144.945 37.4707 144.945 29.6941C144.945 21.4188 150.892 15.8047 158.065 15.8047C165.28 15.8047 168.815 21.5433 169.959 24.6414L170.583 26.2218L151.994 33.915C153.408 36.7014 155.612 38.1153 158.731 38.1153C161.85 38.1153 164.012 36.5766 165.571 34.2685ZM150.996 29.2579L163.409 24.101C162.723 22.3754 160.686 21.1488 158.252 21.1488C155.155 21.1488 150.85 23.8934 150.996 29.2579Z"
              fill="#A9A9B9"/>
        <path d="M135.982 1.64584H141.97V42.3164H135.982V1.64551V1.64584Z"
              fill="#A9A9B9"/>
        <path d="M126.542 16.886H132.322V41.5877C132.322 51.8383 126.271 56.0592 119.118 56.0592C112.382 56.0592 108.327 51.5265 106.809 47.8463L112.112 45.6421C113.068 47.9084 115.376 50.591 119.118 50.591C123.714 50.591 126.542 47.7422 126.542 42.4195V40.4235H126.334C124.961 42.0867 122.341 43.5837 119.015 43.5837C112.07 43.5837 105.707 37.533 105.707 29.736C105.707 21.8969 112.07 15.7842 119.015 15.7842C122.321 15.7842 124.961 17.2605 126.334 18.8823H126.542V16.8863V16.886ZM126.957 29.736C126.957 24.8288 123.693 21.2524 119.534 21.2524C115.334 21.2524 111.799 24.8288 111.799 29.736C111.799 34.5804 115.334 38.0944 119.534 38.0944C123.693 38.1154 126.958 34.5804 126.958 29.736H126.957Z"
              fill="#A9A9B9"/>
        <path d="M72.8355 29.6328C72.8355 37.638 66.5979 43.5222 58.946 43.5222C51.2946 43.5222 45.0566 37.6173 45.0566 29.6328C45.0566 21.5861 51.2946 15.7227 58.946 15.7227C66.5979 15.7227 72.8355 21.5861 72.8355 29.6328ZM66.7641 29.6328C66.7641 24.6428 63.1459 21.2116 58.946 21.2116C54.7461 21.2116 51.128 24.6428 51.128 29.6328C51.128 34.5813 54.7461 38.0539 58.946 38.0539C63.1463 38.0539 66.7641 34.5813 66.7641 29.6328Z"
              fill="#A9A9B9"/>
        <path d="M103.171 29.6941C103.171 37.6994 96.9335 43.5835 89.282 43.5835C81.6302 43.5835 75.3926 37.699 75.3926 29.6941C75.3926 21.6474 81.6302 15.8047 89.282 15.8047C96.9335 15.8047 103.171 21.6267 103.171 29.6941ZM97.079 29.6941C97.079 24.7042 93.4612 21.2729 89.261 21.2729C85.0611 21.2729 81.4429 24.7042 81.4429 29.6941C81.4429 34.6427 85.0611 38.1153 89.261 38.1153C93.4819 38.1153 97.079 34.622 97.079 29.6941Z"
              fill="#A9A9B9"/>
        <path d="M22.2258 37.4912C13.5136 37.4912 6.69392 30.4632 6.69392 21.751C6.69392 13.0391 13.5136 6.01115 22.2258 6.01115C26.9251 6.01115 30.3556 7.8616 32.8923 10.2321L37.0719 6.05287C33.5372 2.66371 28.8172 0.0849609 22.2258 0.0849609C10.291 0.0852947 0.248047 9.81652 0.248047 21.751C0.248047 33.6862 10.291 43.4171 22.2258 43.4171C28.6717 43.4171 33.5372 41.2962 37.3422 37.3457C41.2511 33.4365 42.457 27.9472 42.457 23.4977C42.457 22.1045 42.2908 20.6699 42.1035 19.6095H22.2258V25.3898H36.3856C35.9697 29.008 34.8262 31.4822 33.142 33.1661C31.1043 35.2249 27.8817 37.4912 22.2258 37.4912Z"
              fill="#A9A9B9"/>
    </g>
    <defs>
        <clipPath id="clip0_1_322">
            <rect width="170.893" height="56.0743" fill="white"/>
        </clipPath>
    </defs>
</svg>
