<svg width="101" height="45" viewBox="0 0 101 45" fill="none"
     xmlns="http://www.w3.org/2000/svg">
    <path d="M22.1595 0C16.2819 0 10.645 2.33486 6.48897 6.49093C2.3329 10.647 -0.00195312 16.2838 -0.00195312 22.1614C-0.00195312 28.039 2.3329 33.6758 6.48897 37.8319C10.645 41.988 16.2819 44.3228 22.1595 44.3228C27.9624 44.2099 33.4895 41.8255 37.5535 37.6817C41.6175 33.5379 43.894 27.9654 43.894 22.1614C43.894 16.3574 41.6175 10.7849 37.5535 6.64112C33.4895 2.49734 27.9624 0.11288 22.1595 0ZM22.1595 3.60552C22.3691 3.60552 22.8135 3.60553 23.0399 3.61391V5.3454C22.7464 5.3391 22.453 5.33491 22.1595 5.33282C19.9504 5.32731 17.7621 5.75984 15.7213 6.6054C13.6804 7.45095 11.8275 8.69276 10.2696 10.259C8.70263 11.8163 7.46034 13.6691 6.61473 15.7101C5.76911 17.7511 5.33701 19.9396 5.34345 22.1488C5.34345 26.6432 7.09171 30.8692 10.2696 34.0387C11.8275 35.6049 13.6804 36.8467 15.7213 37.6923C17.7621 38.5378 19.9504 38.9703 22.1595 38.9648C26.4222 38.957 30.5236 37.3346 33.6377 34.4244C36.7518 31.5141 38.6471 27.5323 38.9419 23.2808V23.0292H27.4629V21.3103H39.9607L40.7028 21.3061V22.1488C40.7105 24.5849 40.235 26.9982 39.3038 29.2492C38.3726 31.5003 37.0041 33.5443 35.2777 35.2629C33.5579 36.9907 31.5128 38.3605 29.2604 39.2931C27.008 40.2258 24.5931 40.7027 22.1553 40.6963C17.2081 40.6963 12.5545 38.7678 9.03283 35.2629C7.30715 33.5439 5.93949 31.4998 5.00901 29.2488C4.07852 26.9978 3.60368 24.5846 3.61196 22.1488C3.6175 17.231 5.57326 12.5162 9.05027 9.03841C12.5273 5.56062 17.2417 3.6038 22.1595 3.59714V3.60552ZM89.5032 7.28651C80.2378 7.28651 75.3661 12.3468 75.3661 21.9937C75.3661 31.5945 79.7682 36.7931 89.4528 36.7931C93.8969 36.7931 98.2528 35.6612 100.617 34.0051V20.1029H89.13V25.4441H94.5173V30.4541C93.5237 30.8314 91.5826 31.213 89.7379 31.213C83.7846 31.213 81.7974 28.186 81.7974 22.0398C81.7974 16.1787 83.684 12.7242 89.6457 12.7242C92.9577 12.7242 94.8444 13.7639 96.4082 15.7511L100.525 11.9695C98.0181 8.37656 93.6202 7.28651 89.499 7.28651H89.5032ZM54.2319 7.71415V36.3655H74.5654V30.7895H60.856V7.70996L54.2319 7.71415ZM15.0826 12.4223C15.7886 12.4223 16.4658 12.7028 16.965 13.202C17.4643 13.7013 17.7448 14.3785 17.7448 15.0845C17.7448 15.7906 17.4643 16.4677 16.965 16.967C16.4658 17.4663 15.7886 17.7467 15.0826 17.7467C14.3765 17.7467 13.6994 17.4663 13.2001 16.967C12.7008 16.4677 12.4203 15.7906 12.4203 15.0845C12.4203 14.3785 12.7008 13.7013 13.2001 13.202C13.6994 12.7028 14.3765 12.4223 15.0826 12.4223ZM21.279 12.4307H23.0399V30.1229H27.4504V31.8586H21.279V12.4307Z"
          fill="#A9A9B9"/>
</svg>
