<svg width="246" height="53" viewBox="0 0 246 53" fill="none"
     xmlns="http://www.w3.org/2000/svg">
    <g clip-path="url(#clip0_1_316)">
        <path d="M245.958 23.7538V19.428H240.586V12.7035L240.406 12.7587L235.36 14.3027L235.261 14.333V19.428H227.298V16.5898C227.298 15.2683 227.593 14.2566 228.176 13.5826C228.755 12.9158 229.582 12.5771 230.637 12.5771C231.396 12.5771 232.181 12.7559 232.971 13.108L233.169 13.1964V8.64133L233.076 8.60771C232.339 8.34205 231.336 8.20898 230.093 8.20898C228.526 8.20898 227.102 8.54958 225.861 9.22548C224.637 9.88354 223.629 10.8802 222.957 12.0963C222.275 13.3232 221.929 14.7399 221.929 16.3078V19.4284H218.188V23.7543H221.929V41.9769H227.298V23.7538H235.261V35.3341C235.261 40.1033 237.511 42.5207 241.947 42.5207C242.714 42.5162 243.478 42.4312 244.227 42.267C245.025 42.0955 245.568 41.924 245.888 41.741L245.958 41.6992V37.3334L245.74 37.478C245.448 37.6726 245.086 37.8311 244.66 37.9488C244.233 38.0689 243.876 38.1294 243.599 38.1294C242.56 38.1294 241.791 37.8494 241.314 37.2964C240.831 36.7392 240.586 35.7635 240.586 34.3992V23.7538H245.958ZM206.197 38.1299C204.249 38.1299 202.712 37.4833 201.629 36.2108C200.54 34.931 199.987 33.1075 199.987 30.7896C199.987 28.3987 200.54 26.5276 201.63 25.2253C202.713 23.9321 204.235 23.2754 206.154 23.2754C208.015 23.2754 209.497 23.9023 210.559 25.1402C211.626 26.384 212.167 28.2402 212.167 30.6589C212.167 33.1075 211.658 34.9887 210.654 36.2468C209.657 37.4958 208.158 38.1299 206.197 38.1299ZM206.437 18.8846C202.718 18.8846 199.765 19.9742 197.66 22.1229C195.555 24.2722 194.488 27.2458 194.488 30.963C194.488 34.4934 195.53 37.333 197.584 39.402C199.638 41.4715 202.434 42.5197 205.892 42.5197C209.497 42.5197 212.391 41.4153 214.496 39.2367C216.6 37.0606 217.667 34.1148 217.667 30.4841C217.667 26.8989 216.666 24.0382 214.692 21.9831C212.717 19.9271 209.939 18.8846 206.437 18.8846ZM185.831 18.8846C183.302 18.8846 181.21 19.5317 179.611 20.8071C178.004 22.0903 177.188 23.7735 177.188 25.8099C177.188 26.8682 177.364 27.8083 177.711 28.6058C178.059 29.4061 178.599 30.1103 179.315 30.7017C180.026 31.2882 181.124 31.9027 182.579 32.5272C183.802 33.0306 184.714 33.4567 185.293 33.792C185.86 34.1211 186.262 34.4516 186.489 34.7734C186.709 35.0881 186.821 35.5195 186.821 36.0513C186.821 37.5664 185.687 38.3033 183.353 38.3033C182.486 38.3033 181.499 38.1227 180.417 37.7663C179.343 37.4151 178.329 36.901 177.411 36.242L177.188 36.0825V41.2515L177.27 41.2899C178.03 41.6406 178.988 41.936 180.117 42.169C181.244 42.4015 182.267 42.5202 183.157 42.5202C185.901 42.5202 188.111 41.8702 189.723 40.5871C191.347 39.2949 192.17 37.5727 192.17 35.4652C192.17 33.9457 191.727 32.642 190.853 31.5909C189.987 30.5484 188.483 29.591 186.384 28.7451C184.713 28.074 183.641 27.5172 183.2 27.0897C182.774 26.6765 182.558 26.0924 182.558 25.3531C182.558 24.6968 182.825 24.1718 183.373 23.7462C183.925 23.3186 184.694 23.101 185.658 23.101C186.552 23.101 187.468 23.2422 188.378 23.5189C189.288 23.7961 190.086 24.1675 190.753 24.6209L190.973 24.7708V19.867L190.888 19.831C190.274 19.5668 189.462 19.341 188.477 19.1585C187.495 18.9769 186.605 18.8846 185.831 18.8846ZM163.19 38.1299C161.242 38.1299 159.705 37.4833 158.622 36.2108C157.533 34.931 156.982 33.1075 156.982 30.7896C156.982 28.3987 157.533 26.5276 158.624 25.2253C159.706 23.9321 161.227 23.2754 163.147 23.2754C165.009 23.2754 166.491 23.9023 167.552 25.1402C168.619 26.384 169.161 28.2402 169.161 30.6589C169.161 33.1075 168.651 34.9887 167.647 36.2468C166.65 37.4958 165.151 38.1299 163.19 38.1299ZM163.43 18.8846C159.711 18.8846 156.757 19.9742 154.653 22.1229C152.549 24.2722 151.481 27.2458 151.481 30.963C151.481 34.4948 152.524 37.333 154.577 39.402C156.632 41.4715 159.427 42.5197 162.886 42.5197C166.489 42.5197 169.385 41.4153 171.49 39.2367C173.594 37.0606 174.66 34.1148 174.66 30.4841C174.66 26.8989 173.659 24.0382 171.685 21.9831C169.709 19.9271 166.932 18.8846 163.43 18.8846ZM143.331 23.333V19.428H138.027V41.9759H143.33V30.4413C143.33 28.4799 143.775 26.8687 144.653 25.6519C145.519 24.4494 146.674 23.8398 148.083 23.8398C148.561 23.8398 149.097 23.9186 149.677 24.0747C150.252 24.2294 150.669 24.3976 150.914 24.5743L151.137 24.7362V19.3895L151.051 19.3525C150.558 19.1426 149.859 19.0369 148.975 19.0369C147.642 19.0369 146.449 19.4649 145.427 20.308C144.531 21.0493 143.882 22.0658 143.387 23.333H143.331ZM128.528 18.8846C126.095 18.8846 123.924 19.4068 122.078 20.4353C120.229 21.4658 118.798 22.9381 117.824 24.8093C116.855 26.6765 116.364 28.8575 116.364 31.2897C116.364 33.4197 116.841 35.3749 117.783 37.0976C118.727 38.8236 120.062 40.174 121.752 41.1107C123.44 42.046 125.391 42.5202 127.55 42.5202C130.071 42.5202 132.223 42.0163 133.949 41.0228L134.018 40.9825V36.1233L133.796 36.2862C133.002 36.8616 132.127 37.3167 131.201 37.637C130.263 37.9642 129.409 38.1294 128.66 38.1294C126.578 38.1294 124.908 37.4785 123.695 36.1949C122.479 34.9089 121.863 33.1041 121.863 30.8323C121.863 28.5467 122.506 26.6953 123.772 25.3286C125.035 23.9667 126.709 23.2759 128.747 23.2759C130.49 23.2759 132.189 23.8663 133.796 25.0322L134.018 25.1936V20.0736L133.947 20.0332C133.341 19.6946 132.517 19.415 131.493 19.2031C130.473 18.9918 129.476 18.8846 128.528 18.8846ZM112.711 19.428H107.406V41.9759H112.711V19.428ZM110.113 9.82261C109.24 9.82261 108.478 10.12 107.853 10.7084C107.225 11.2993 106.906 12.043 106.906 12.9201C106.906 13.7839 107.221 14.5136 107.842 15.0886C108.461 15.6617 109.224 15.9523 110.113 15.9523C111 15.9523 111.767 15.6617 112.393 15.0896C113.022 14.5136 113.341 13.7839 113.341 12.9201C113.341 12.0737 113.031 11.3373 112.419 10.7325C111.807 10.1286 111.031 9.82261 110.113 9.82261ZM96.879 17.7649V41.9754H102.292V10.5129H94.8004L85.2777 33.8823L76.0369 10.5129H68.2402V41.9759H73.3271V17.7625H73.5019L83.26 41.9759H87.0983L96.7042 17.7644L96.879 17.7649Z"
              fill="#A9A9B9"/>
        <path d="M24.9508 24.9509H0V3.05176e-05H24.9508V24.9509Z"
              fill="#A9A9B9"/>
        <path d="M52.5016 24.9508H27.5508V0H52.5016V24.9508Z" fill="#A9A9B9"/>
        <path d="M24.9504 52.5104H0V27.5596H24.9504V52.5104Z" fill="#A9A9B9"/>
        <path d="M52.5016 52.5104H27.5508V27.5596H52.5016V52.5104Z"
              fill="#A9A9B9"/>
    </g>
    <defs>
        <clipPath id="clip0_1_316">
            <rect width="245.958" height="52.8426" fill="white"/>
        </clipPath>
    </defs>
</svg>
