<svg width="175" height="27" viewBox="0 0 175 27" fill="none"
     xmlns="http://www.w3.org/2000/svg">
    <path d="M144.405 0.830704L144.74 20.4617H144.572L138.889 0.837994H129.54V25.5552H135.719L135.384 5.26115H135.551L141.643 25.5552H150.584V0.837994L144.405 0.830704ZM26.7211 0.830704L22.0502 25.8103H28.8125L32.2373 3.08965H32.4049L35.7496 25.8103H42.4244L37.8337 0.837994L26.7211 0.830704ZM64.4746 0.830704L61.385 19.8787H61.2174L58.1277 0.837994H47.9479L47.4451 25.8103H53.7119L53.8795 3.34469H53.9596L58.135 25.8103H64.4819L68.6573 3.34469H68.8249L68.9925 25.8103H75.2593L74.6763 0.837994L64.4746 0.830704ZM11.5279 18.7128C11.7178 19.3068 11.7455 19.9408 11.6081 20.5491C11.4405 21.3798 10.8575 22.2178 9.1888 22.2178C7.60025 22.2178 6.6821 21.2997 6.6821 19.9589V17.5396H0V19.4634C0 25.0597 4.42316 26.7284 9.10865 26.7284C13.612 26.7284 17.372 25.1399 17.955 21.0446C18.2902 18.8731 18.0424 17.4595 17.955 16.9567C16.7891 11.6955 7.26506 10.1871 6.59466 7.26505C6.51127 6.82446 6.51127 6.37213 6.59466 5.93154C6.76226 5.09355 7.3525 4.25556 8.8536 4.25556C10.3547 4.25556 11.1854 5.181 11.1854 6.5145V8.0156H17.4522V6.26675C17.4522 0.837993 12.5262 0 9.0212 0C4.59076 0 0.918152 1.5011 0.247755 5.5162C0.0284526 6.62133 0.0583251 7.76146 0.335198 8.8536C1.33351 14.0273 10.2746 15.5357 11.5279 18.7055M92.7916 18.7055C93.0394 19.2885 92.9519 20.0463 92.8718 20.5491C92.7042 21.3798 92.1212 22.2178 90.4525 22.2178C88.864 22.2178 87.9458 21.2997 87.9458 19.9589V17.5396H81.2637V19.4634C81.2637 24.9723 85.6067 26.641 90.2849 26.641C94.7955 26.641 98.4681 25.1399 99.0511 20.9645C99.3863 18.793 99.1385 17.4594 99.0511 16.8692C98.0528 11.6955 88.6089 10.107 87.9458 7.26505C87.8617 6.82453 87.8617 6.37207 87.9458 5.93154C88.1134 5.09355 88.6963 4.25556 90.2047 4.25556C91.6184 4.25556 92.5366 5.181 92.5366 6.5145V8.0156H98.7159V6.26675C98.7159 0.837993 93.8701 0 90.3651 0C85.9419 0 82.3494 1.42095 81.679 5.5162C81.5114 6.60195 81.5114 7.60025 81.7665 8.8536C82.7648 14.0273 91.531 15.4483 92.7916 18.7055ZM113.836 22.0502C115.585 22.0502 116.095 20.8843 116.255 20.2139C116.343 19.9589 116.343 19.5435 116.343 19.2958V0.830704H122.683V18.7857C122.683 19.2885 122.683 20.2066 122.61 20.4617C122.187 25.1326 118.514 26.6337 113.916 26.6337C109.326 26.6337 105.653 25.1326 105.23 20.4544C105.23 20.2066 105.15 19.2885 105.15 18.7857V0.830704H111.49V19.2885C111.49 19.6237 111.49 19.9516 111.577 20.2066C111.577 20.8697 112.087 22.0429 113.836 22.0429M165.952 21.7952C167.789 21.7952 168.371 20.6293 168.539 19.9516C168.619 19.7038 168.619 19.2885 168.619 19.0334V15.441H166.032V11.7684H174.886V18.4505C174.886 18.9533 174.886 19.2885 174.806 20.1265C174.383 24.7172 170.456 26.2985 166.032 26.2985C161.609 26.2985 157.682 24.7172 157.266 20.1192C157.179 19.2885 157.179 18.9533 157.179 18.4505V7.92816C157.179 7.51281 157.266 6.67481 157.266 6.25217C157.849 1.58126 161.609 0.0801537 166.032 0.0801537C170.456 0.0801537 174.303 1.58126 174.799 6.25946C174.886 7.01001 174.886 7.92816 174.886 7.92816V8.76616H168.619V7.34521C168.619 7.34521 168.619 6.76226 168.539 6.42706C168.452 5.84411 167.956 4.59075 166.032 4.59075C164.196 4.59075 163.701 5.75666 163.526 6.42706C163.446 6.75497 163.446 7.17761 163.446 7.59297V19.0334C163.446 19.3686 163.446 19.7038 163.526 19.9516C163.526 20.622 164.196 21.7952 165.952 21.7952Z"
          fill="#A9A9B9"/>
</svg>
