<svg width="179" height="46" viewBox="0 0 179 46" fill="none"
     xmlns="http://www.w3.org/2000/svg">
    <path d="M57.0949 35.6545L59.3278 30.4602C61.7389 32.2646 64.9366 33.2011 68.0991 33.2011C70.4413 33.2011 71.9088 32.2999 71.9088 30.9276C71.8735 27.1109 57.9221 30.1004 57.8198 20.5108C57.7845 15.6464 62.097 11.8913 68.2084 11.8913C71.84 11.8913 75.4698 12.7944 78.0608 14.8544L75.9743 20.1528C73.6038 18.636 70.6548 17.5548 67.8504 17.5548C65.942 17.5548 64.6879 18.4578 64.6879 19.6078C64.7232 23.3558 78.7769 21.3028 78.9215 30.4602C78.9215 35.4341 74.7202 38.9334 68.6776 38.9334C64.254 38.9334 60.1886 37.8892 57.0949 35.6545ZM142.638 28.5854C141.941 29.8282 140.851 30.8045 139.539 31.361C138.227 31.9174 136.768 32.0226 135.39 31.6599C134.012 31.2973 132.793 30.4873 131.925 29.3572C131.058 28.2271 130.589 26.8408 130.595 25.4159C130.592 24.5691 130.757 23.7302 131.079 22.9472C131.402 22.1643 131.875 21.4526 132.473 20.8529C133.071 20.2533 133.781 19.7775 134.563 19.4527C135.345 19.128 136.184 18.9607 137.031 18.9605C139.435 18.9605 141.523 20.2974 142.639 22.2411L148.784 18.8159C146.483 14.7098 142.059 11.8913 137.031 11.8913C129.582 11.8913 123.547 17.9551 123.547 25.4159C123.547 32.8766 129.582 38.9334 137.031 38.9334C139.431 38.9386 141.788 38.2985 143.856 37.0803C145.923 35.8621 147.626 34.1105 148.784 32.0088L142.638 28.5854ZM82.0152 0.680811H89.7123V38.4307H82.0152V0.680811ZM151.809 0.680811V38.4307H159.497V27.1109L168.634 38.4307H178.486L166.87 24.982L177.624 12.4363H168.2L159.497 22.8531V0.682574H151.807L151.809 0.680811ZM112.578 28.6612C111.463 30.5008 109.161 31.8642 106.57 31.8642C105.724 31.8638 104.887 31.6965 104.105 31.3721C103.324 31.0477 102.614 30.5725 102.017 29.9736C101.419 29.3748 100.945 28.664 100.623 27.8819C100.3 27.0999 100.135 26.2619 100.136 25.4159C100.134 24.5695 100.3 23.731 100.622 22.9485C100.945 22.1659 101.418 21.4546 102.016 20.8551C102.613 20.2556 103.323 19.7797 104.105 19.4547C104.886 19.1296 105.724 18.9617 106.57 18.9605C109.161 18.9605 111.463 20.3997 112.578 22.2746V28.6612ZM112.578 12.4346V15.5035C111.318 13.3729 108.189 11.8913 104.918 11.8913C98.1589 11.8913 92.8394 17.8793 92.8394 25.3753C92.8394 32.8784 98.1589 38.9334 104.918 38.9334C108.189 38.9334 111.318 37.4518 112.578 35.33V38.3972H120.275V12.4346H112.578ZM9.52965 28.6189C9.52965 31.2522 7.40784 33.381 4.78159 33.381C4.15709 33.3806 3.53881 33.257 2.96214 33.0173C2.38546 32.7776 1.86171 32.4266 1.42086 31.9842C0.980013 31.5419 0.630717 31.017 0.392964 30.4395C0.15521 29.8621 0.0336671 29.2434 0.0352905 28.6189C0.0341307 27.9949 0.156054 27.3769 0.39408 26.8001C0.632107 26.2233 0.98156 25.6992 1.42243 25.2577C1.86331 24.8161 2.38694 24.4659 2.96335 24.227C3.53976 23.9881 4.15764 23.8653 4.78159 23.8655H9.52965V28.6189ZM11.8984 28.6189C11.8972 27.9948 12.0192 27.3766 12.2573 26.7997C12.4955 26.2228 12.8451 25.6986 13.2862 25.257C13.7272 24.8155 14.2511 24.4653 14.8277 24.2265C15.4043 23.9877 16.0223 23.8651 16.6465 23.8655C17.2705 23.8653 17.8886 23.9882 18.4651 24.2272C19.0416 24.4662 19.5653 24.8166 20.0062 25.2583C20.4471 25.7 20.7965 26.2244 21.0345 26.8013C21.2724 27.3783 21.3941 27.9965 21.3927 28.6206V40.519C21.3941 41.1434 21.2724 41.7619 21.0346 42.3391C20.7967 42.9164 20.4474 43.4411 20.0065 43.8832C19.5657 44.3254 19.0421 44.6763 18.4655 44.9158C17.8889 45.1554 17.2708 45.279 16.6465 45.2794C16.0218 45.2792 15.4033 45.1558 14.8265 44.9162C14.2496 44.6766 13.7256 44.3256 13.2846 43.8832C12.8435 43.4409 12.4941 42.9159 12.2562 42.3383C12.0184 41.7607 11.8968 41.1419 11.8984 40.5173V28.6189ZM16.6465 9.51552C16.0218 9.51529 15.4033 9.39186 14.8265 9.15228C14.2496 8.9127 13.7256 8.56169 13.2846 8.11934C12.8435 7.67699 12.4941 7.152 12.2562 6.57441C12.0184 5.99682 11.8968 5.378 11.8984 4.75335C11.8972 4.12925 12.0192 3.51105 12.2573 2.93417C12.4955 2.35729 12.8451 1.83306 13.2862 1.39151C13.7272 0.949957 14.2511 0.599763 14.8277 0.360985C15.4043 0.122206 16.0223 -0.000463776 16.6465 1.31758e-06C17.2704 -0.000231713 17.8883 0.122607 18.4647 0.361489C19.0411 0.600372 19.5647 0.950606 20.0056 1.39213C20.4465 1.83366 20.7959 2.35782 21.034 2.93458C21.272 3.51135 21.3939 4.1294 21.3927 4.75335V9.51552H16.6465ZM16.6465 11.9336C17.2704 11.9334 17.8883 12.0563 18.4647 12.2951C19.0411 12.534 19.5647 12.8843 20.0056 13.3258C20.4465 13.7673 20.7959 14.2915 21.034 14.8682C21.272 15.445 21.3939 16.063 21.3927 16.687C21.3927 19.3185 19.2709 21.4492 16.6465 21.4492H4.74808C4.12343 21.4489 3.50496 21.3255 2.92808 21.0859C2.3512 20.8463 1.82725 20.4953 1.38621 20.053C0.945174 19.6106 0.595719 19.0856 0.357856 18.5081C0.119992 17.9305 -0.00160766 17.3116 1.60486e-05 16.687C-0.00114416 16.0629 0.120836 15.4447 0.358973 14.8678C0.597109 14.2909 0.946721 13.7667 1.38778 13.3252C1.82884 12.8836 2.35268 12.5334 2.9293 12.2946C3.50591 12.0559 4.12398 11.9332 4.74808 11.9336H16.6465ZM35.6687 16.687C35.6675 16.063 35.7894 15.445 36.0275 14.8682C36.2655 14.2915 36.6149 13.7673 37.0558 13.3258C37.4967 12.8843 38.0203 12.534 38.5967 12.2951C39.1731 12.0563 39.791 11.9334 40.415 11.9336C41.0391 11.9332 41.6571 12.0559 42.2338 12.2946C42.8104 12.5334 43.3342 12.8836 43.7753 13.3252C44.2163 13.7667 44.5659 14.2909 44.8041 14.8678C45.0422 15.4447 45.1642 16.0629 45.163 16.687C45.163 19.3185 43.0412 21.4492 40.415 21.4492H35.6687V16.687ZM33.2982 16.687C33.2982 19.3185 31.1764 21.4492 28.5519 21.4492C27.9272 21.4489 27.3088 21.3255 26.7319 21.0859C26.155 20.8463 25.631 20.4953 25.19 20.053C24.749 19.6106 24.3995 19.0856 24.1617 18.5081C23.9238 17.9305 23.8022 17.3116 23.8038 16.687V4.75335C23.8027 4.12925 23.9246 3.51105 24.1628 2.93417C24.4009 2.35729 24.7505 1.83306 25.1916 1.39151C25.6326 0.949957 26.1565 0.599763 26.7331 0.360985C27.3097 0.122206 27.9278 -0.000463776 28.5519 1.31758e-06C29.1758 -0.000231713 29.7937 0.122607 30.3701 0.361489C30.9465 0.600372 31.4702 0.950606 31.911 1.39213C32.3519 1.83366 32.7014 2.35782 32.9394 2.93458C33.1774 3.51135 33.2993 4.1294 33.2982 4.75335V16.687ZM28.5519 35.7639C29.176 35.7637 29.794 35.8866 30.3705 36.1256C30.947 36.3646 31.4708 36.7149 31.9117 37.1567C32.3526 37.5984 32.702 38.1227 32.9399 38.6997C33.1778 39.2767 33.2996 39.8949 33.2982 40.519C33.2996 41.1434 33.1778 41.7619 32.94 42.3391C32.7021 42.9164 32.3528 43.4411 31.912 43.8832C31.4711 44.3254 30.9475 44.6763 30.3709 44.9158C29.7944 45.1554 29.1762 45.279 28.5519 45.2794C27.9272 45.2792 27.3088 45.1558 26.7319 44.9162C26.155 44.6766 25.631 44.3256 25.19 43.8832C24.749 43.4409 24.3995 42.9159 24.1617 42.3383C23.9238 41.7607 23.8022 41.1419 23.8038 40.5173V35.7639H28.5519ZM28.5519 33.381C27.9272 33.3808 27.3088 33.2574 26.7319 33.0178C26.155 32.7782 25.631 32.4272 25.19 31.9849C24.749 31.5425 24.3995 31.0175 24.1617 30.4399C23.9238 29.8624 23.8022 29.2435 23.8038 28.6189C23.8027 27.9948 23.9246 27.3766 24.1628 26.7997C24.4009 26.2228 24.7505 25.6986 25.1916 25.257C25.6326 24.8155 26.1565 24.4653 26.7331 24.2265C27.3097 23.9877 27.9278 23.8651 28.5519 23.8655H40.4502C41.0743 23.8653 41.6924 23.9882 42.2689 24.2272C42.8454 24.4662 43.3691 24.8166 43.81 25.2583C44.2509 25.7 44.6003 26.2244 44.8383 26.8013C45.0762 27.3783 45.1979 27.9965 45.1965 28.6206C45.1979 29.245 45.0762 29.8635 44.8384 30.4408C44.6005 31.018 44.2512 31.5427 43.8103 31.9849C43.3695 32.427 42.8459 32.7779 42.2693 33.0175C41.6927 33.257 41.0746 33.3806 40.4502 33.381H28.5519Z"
          fill="#A9A9B9"/>
</svg>
