<svg width="155" height="28" viewBox="0 0 155 28" fill="none"
     xmlns="http://www.w3.org/2000/svg">
    <path d="M55.1909 0C61.1361 0 65.8934 1.48467 69.5277 4.78967C72.0129 7.04249 73.4007 10.2507 73.362 13.6138C73.3529 15.2732 73.0085 16.9136 72.3497 18.4366C71.6908 19.9596 70.7309 21.3338 69.5277 22.4766C66.1258 25.6008 60.8262 27.2663 55.1974 27.2663C49.5621 27.2663 44.3529 25.6008 40.8994 22.4766C39.6543 21.3638 38.6625 19.9967 37.991 18.4677C37.3195 16.9388 36.9839 15.2835 37.007 13.6138C37.007 10.27 38.4142 7.06186 40.8994 4.78967C44.1269 1.85907 49.8332 0 55.1909 0ZM55.2103 23.6901C58.1861 23.6901 60.9424 22.6509 62.8789 20.7337C64.8154 18.7972 65.674 16.4734 65.674 13.6138C65.674 10.8768 64.7186 8.31414 62.8789 6.49381C60.9811 4.62184 58.1474 3.55675 55.2103 3.55675C52.2732 3.55675 49.4459 4.61538 47.5287 6.49381C45.6891 8.31414 44.7272 10.8768 44.7272 13.6138C44.6879 16.2632 45.6945 18.8214 47.5287 20.7337C49.4459 22.6315 52.2603 23.6901 55.2103 23.6901ZM23.9613 10.9865C24.9941 11.2577 25.9946 11.5933 26.9693 12.0387C27.8737 12.4505 28.7011 13.0138 29.4158 13.7041C30.6875 15.0339 31.4104 16.8155 31.3911 18.6487C31.4049 19.6207 31.1908 20.5825 30.766 21.4568C30.3411 22.3312 29.7173 23.0939 28.9446 23.6837C27.5777 24.7198 26.0237 25.4825 24.3679 25.93C21.8755 26.7123 19.2723 27.0829 16.6606 27.0274C14.3884 27.0274 13.1361 26.7628 11.4126 26.4013L10.9156 26.298C9.01635 25.878 7.16173 25.2771 5.3771 24.5035C5.2973 24.4494 5.2023 24.4223 5.10598 24.426C4.96442 24.4294 4.8298 24.488 4.73089 24.5893C4.63198 24.6906 4.57663 24.8266 4.57667 24.9682V26.2786H0.78108V16.738H4.16354C4.18436 17.7052 4.49218 18.6444 5.04789 19.4362C6.41636 21.1146 7.88812 21.7601 9.28887 22.2765C11.6579 23.0511 14.1431 23.4642 16.6218 23.5417C20.1915 23.5417 22.2765 22.6767 22.7283 22.4895L22.7864 22.4637L22.8252 22.4508C23.2254 22.3023 24.8392 21.7149 24.8392 19.9204C24.8392 18.1517 23.3287 17.7644 22.341 17.5126L22.199 17.4804C21.1017 17.1834 18.5713 16.9123 15.8085 16.6218L14.8273 16.5185C12.2365 16.2547 9.6585 15.8778 7.1006 15.3889C3.88597 14.6789 2.62078 13.504 1.83326 12.7746L1.78162 12.723C0.633599 11.4989 -0.00367114 9.8826 1.59102e-05 8.20441C1.59102e-05 5.00269 2.19474 3.06616 4.88651 1.87843C7.76547 0.587414 11.1867 0.0129154 14.1818 0.0129154C19.475 0.0322806 23.7805 1.75579 25.3297 2.55622C25.9559 2.89188 26.2657 2.47875 26.2657 2.16891V1.2071H29.6676V9.52124H26.6208C26.3472 8.28747 25.6814 7.17549 24.723 6.3518C24.1389 5.88205 23.494 5.49338 22.8058 5.19634C20.2519 4.11796 17.5025 3.57952 14.7305 3.61485C11.8709 3.61485 9.13395 4.16353 7.75902 5.00269C6.90695 5.532 6.468 6.19688 6.468 6.97794C6.468 8.09467 7.41044 8.54007 7.88812 8.67563C9.15332 9.06293 11.9677 9.3405 14.156 9.55998L15.4728 9.69553C17.5836 9.90855 22.0054 10.496 23.9613 10.9865ZM141.231 4.55084V1.45885H154.922V4.49273H151.849C150.739 4.49273 150.287 4.70575 149.448 5.64819L140.237 16.17C140.139 16.2994 140.096 16.4611 140.114 16.6218V21.4115C140.129 21.6342 140.155 21.8561 140.191 22.0764C140.246 22.2168 140.333 22.3424 140.445 22.4433C140.557 22.5441 140.691 22.6174 140.837 22.6573C141.115 22.6983 141.395 22.7199 141.676 22.7219H144.813V25.7558H128.198V22.7219H131.167C131.448 22.7199 131.728 22.6984 132.006 22.6573C132.154 22.6153 132.29 22.5415 132.406 22.4411C132.522 22.3408 132.615 22.2163 132.678 22.0764C132.716 21.8634 132.736 21.6473 132.736 21.4309V16.6412C132.736 16.4798 132.736 16.4798 132.523 16.2281C129.491 12.7736 126.452 9.32439 123.408 5.88058C122.918 5.37063 122.078 4.55084 120.787 4.55084H117.831V1.51695H134.537V4.55084H132.523C132.071 4.55084 131.761 5.00269 132.148 5.49328L137.822 12.2776C137.88 12.355 137.919 12.355 137.997 12.2969C138.074 12.2388 143.767 5.55137 143.806 5.49328C143.853 5.43152 143.887 5.36108 143.907 5.28601C143.927 5.21095 143.931 5.13275 143.92 5.05593C143.91 4.97911 143.884 4.9052 143.844 4.83845C143.805 4.77169 143.752 4.71343 143.69 4.66702C143.575 4.59158 143.44 4.55121 143.303 4.55084H141.231ZM100.667 4.53147H103.798C105.224 4.53147 105.476 5.08015 105.495 6.40989L105.676 16.5185L89.0091 1.51695H77.0995V4.55084H79.759C81.6761 4.55084 81.8117 5.60946 81.8117 6.55191V20.837C81.8117 21.6632 81.8181 22.7412 80.6368 22.7412H77.3706V25.7558H91.3394V22.7219H87.9311C86.5626 22.7219 86.511 22.0957 86.4851 20.766V8.61753L105.676 25.7299H110.563L110.304 6.39053C110.33 4.98332 110.427 4.5121 111.873 4.5121H114.926V1.47821H100.667V4.53147Z"
          fill="#A9A9B9"/>
</svg>
